<svg width="34" height="34" viewBox="0 0 34 34" fill="none" xmlns="http://www.w3.org/2000/svg">
<g clip-path="url(#clip0_12002_216)">
<path d="M33.75 15.8506C33.75 16.6121 33.75 17.3826 33.75 18.1442C33.7321 18.2327 33.6963 18.3302 33.6873 18.4187C33.6157 18.9678 33.5709 19.5168 33.4635 20.057C32.6577 24.0686 30.6432 27.3718 27.3752 29.8691C23.4626 32.8624 19.0217 33.8985 14.16 33.0218C10.6056 32.3842 7.58828 30.7104 5.15297 28.0803C1.6522 24.29 0.246525 19.8091 0.909074 14.7259C1.32093 11.5644 2.62812 8.76599 4.74111 6.35724C7.31073 3.43486 10.516 1.61058 14.3749 0.919835C14.939 0.822422 15.512 0.751576 16.085 0.671875C16.855 0.671875 17.634 0.671875 18.4039 0.671875C18.9232 0.742721 19.4425 0.795855 19.9618 0.884412C22.9522 1.39804 25.6203 2.60242 27.9303 4.55953C30.9297 7.10112 32.792 10.298 33.4904 14.1503C33.5978 14.717 33.6605 15.2838 33.75 15.8506ZM18.6815 25.335C18.6815 25.1845 18.6815 25.0605 18.6815 24.9365C18.6815 22.8643 18.6815 20.792 18.6815 18.7198C18.6815 18.0822 18.8068 17.4977 19.2456 17.0018C19.8275 16.3376 20.5617 16.1074 21.4212 16.2933C22.2091 16.4616 22.612 17.0107 22.7911 17.7368C22.8717 18.0468 22.9164 18.3656 22.9254 18.6755C22.9343 20.7655 22.9343 22.8643 22.9343 24.9542C22.9343 25.0782 22.9343 25.2022 22.9343 25.3173C24.2953 25.3173 25.6024 25.3173 26.9365 25.3173C26.9365 25.1756 26.9365 25.0516 26.9365 24.9277C26.9365 23.0502 26.9454 21.164 26.9365 19.2866C26.9365 18.6047 26.9365 17.9228 26.8559 17.2498C26.5963 15.2129 25.4502 13.3267 22.7642 13.1141C21.1884 12.9902 19.8633 13.4595 18.9143 14.7702C18.8606 14.841 18.7979 14.9118 18.6904 15.0447C18.6904 14.4425 18.6904 13.9289 18.6904 13.4064C17.3385 13.4064 16.0313 13.4064 14.7062 13.4064C14.7062 17.3826 14.7062 21.3411 14.7062 25.3173C16.0134 25.335 17.3206 25.335 18.6815 25.335ZM8.46571 13.4152C8.46571 17.4003 8.46571 21.3588 8.46571 25.3262C9.79976 25.3262 11.107 25.3262 12.4231 25.3262C12.4231 21.3499 12.4231 17.3826 12.4231 13.4152C11.089 13.4152 9.78185 13.4152 8.46571 13.4152ZM10.5518 7.6236C8.9671 7.61475 7.91956 8.80141 8.25978 10.1652C8.46571 11.0065 9.02082 11.5201 9.85348 11.6884C10.7846 11.8743 11.6621 11.7238 12.2888 10.9356C12.817 10.2626 12.8439 9.50101 12.4768 8.74828C12.0739 7.94241 11.3397 7.66788 10.5518 7.6236Z" fill="#E9ECEF"/>
</g>
<defs>
<clipPath id="clip0_12002_216">
<rect width="34" height="34" fill="white"/>
</clipPath>
</defs>
</svg>
